# xmcd CD database file
#
# Track frame offsets:
#	150
#	39057
#	64795
#	93894
#	131307
#	154073
#	199446
#	219349
#	254626
#	264178
#	291468
#	309274
#
# Disc length: 4550 seconds
#
# Revision: 0
# Processed by: cddbd v1.5.2PL0 Copyright (c) Steve Scherf et al.
# Submitted via: CDex 1.70beta2
#
DISCID=a511c40c
DTITLE=Lee Konitz, Dave Liebman, Richie Beirach - Knowinglee
DYEAR=2010
DGENRE=Jazz
TTITLE0=In Your Own Sweet Way
TTITLE1=Don't Tell Me What Key
TTITLE2=Universal Lament
TTITLE3=Alone Together
TTITLE4=Knowinglee
TTITLE5=Solar
TTITLE6=Migration
TTITLE7=Thingin'/All The Things That...
TTITLE8=Trinity
TTITLE9=Body And Soul
TTITLE10=Hi Beck
TTITLE11=What Is This Thing Called Love
EXTD=YEAR: 2010
EXTT0=
EXTT1=
EXTT2=
EXTT3=
EXTT4=
EXTT5=
EXTT6=
EXTT7=
EXTT8=
EXTT9=
EXTT10=
EXTT11=
PLAYORDER=
